<?xml version="1.0" encoding="UTF-8"?>
<svg width="752pt" height="752pt" version="1.1" viewBox="0 0 752 752" xmlns="http://www.w3.org/2000/svg">
 <path d="m309.55 167.62c-4.4688 0.30859-8.1094 3.7031-8.7305 8.1406l-14.059 104.63-72.074 44.988c-2.543 1.582-4.1875 4.2695-4.4375 7.2539l-18.945 241.52c-0.29688 3.6445 1.5273 7.1328 4.6875 8.9688 3.1641 1.832 7.0977 1.6836 10.113-0.38281l198.9-137.34c2.4688-1.6758 4.0078-4.418 4.1445-7.3984l4.4414-85.688 81.543-63.934c2.4805-1.9531 3.8281-5.0117 3.5898-8.1602-0.23828-3.1484-2.0273-5.9727-4.7734-7.5273l-179.07-103.75c-1.6055-0.96094-3.457-1.4219-5.3281-1.332zm8.1406 24.715 154.65 89.684-68.816 54.168-97.824-55.352zm-22.051 104.63 99.008 55.941-4.1445 79.473-162.5 112.33 50.465-90.129c3.957 1.2305 8.0898 1.918 12.434 1.9258 23.426 0.039062 42.512-19.195 42.473-42.625-0.039062-23.426-19.195-42.582-42.621-42.621-23.43-0.039063-42.516 19.195-42.477 42.621 0.023438 12.336 5.2969 23.414 13.766 31.227l-48.246 86.133 15.094-192.39zm-4.8828 93.234c13.188 0.023438 23.805 10.492 23.824 23.68 0.023438 13.191-10.488 23.703-23.676 23.68-13.191-0.023437-23.805-10.488-23.828-23.68-0.023437-13.188 10.488-23.699 23.68-23.68zm41.734 175.23c-2.5117 0.11719-4.875 1.2266-6.5703 3.0859-1.6914 1.8633-2.5781 4.3164-2.4609 6.8281 0.11719 2.5156 1.2305 4.875 3.0898 6.5703 1.8594 1.6914 4.3164 2.5781 6.8281 2.4609h217.85c2.5352 0.035156 4.9805-0.94922 6.7852-2.7266 1.8047-1.7812 2.8203-4.2109 2.8203-6.7461s-1.0156-4.9648-2.8203-6.7461c-1.8047-1.7812-4.25-2.7617-6.7852-2.7266h-217.85c-0.29688-0.015625-0.59375-0.015625-0.88672 0z" fill="#fff"/>
</svg>
